<svg width="32" height="32" viewBox="0 0 32 32" fill="none" xmlns="http://www.w3.org/2000/svg">
<path d="M14.072 8.31996L9.56133 3.11329C9.04133 2.51329 8.088 2.51596 7.484 3.12129L3.77467 6.83729C2.67067 7.94263 2.35467 9.58396 2.99334 10.9C6.80883 18.7999 13.1801 25.1801 21.0747 29.0066C22.3893 29.6453 24.0293 29.3293 25.1333 28.224L28.8773 24.4733C29.484 23.8666 29.4853 22.908 28.88 22.388L23.6533 17.9013C23.1067 17.432 22.2573 17.4933 21.7093 18.0426L19.8907 19.864C19.7976 19.9615 19.675 20.0259 19.5418 20.0471C19.4086 20.0683 19.2721 20.0452 19.1533 19.9813C16.1806 18.2694 13.7147 15.8003 12.0067 12.8253C11.9427 12.7063 11.9195 12.5696 11.9407 12.4362C11.9619 12.3027 12.0263 12.1799 12.124 12.0866L13.9373 10.272C14.4867 9.71996 14.5467 8.86663 14.072 8.31863V8.31996Z" stroke="#EEEEEE" stroke-width="2" stroke-linecap="round" stroke-linejoin="round"/>
</svg>
